<svg width="28" height="28" viewBox="0 0 28 28" fill="none" xmlns="http://www.w3.org/2000/svg">
    <path fill-rule="evenodd" clip-rule="evenodd" d="M4.375 20.125C4.375 19.6418 4.76675 19.25 5.25 19.25H22.75C23.2332 19.25 23.625 19.6418 23.625 20.125C23.625 20.6082 23.2332 21 22.75 21H5.25C4.76675 21 4.375 20.6082 4.375 20.125Z" fill="black"/>
    <path fill-rule="evenodd" clip-rule="evenodd" d="M4.375 13.125C4.375 12.6418 4.76675 12.25 5.25 12.25H22.75C23.2332 12.25 23.625 12.6418 23.625 13.125C23.625 13.6082 23.2332 14 22.75 14H5.25C4.76675 14 4.375 13.6082 4.375 13.125Z" fill="black"/>
    <path fill-rule="evenodd" clip-rule="evenodd" d="M4.375 6.125C4.375 5.64175 4.76675 5.25 5.25 5.25H22.75C23.2332 5.25 23.625 5.64175 23.625 6.125C23.625 6.60825 23.2332 7 22.75 7H5.25C4.76675 7 4.375 6.60825 4.375 6.125Z" fill="black"/>
</svg>

